# xmcd
#
# Track frame offsets: 
#        150
#        14780
#        28696
#        43074
#        59726
#        77354
#        90978
#        104148
#        118833
#        134649
#        151319
#        164022
#        181246
#        198773
#
# Disc length: 2842 seconds
#
# Revision: 2
# Processed by: cddbd v1.5.2PL0 Copyright (c) Steve Scherf et al.
# Submitted via: ExactAudioCopyFreeDBPlugin 1.0
#
DISCID=c30b180e
DTITLE=Melanie Horsnell - The Adventures Of...
DYEAR=2004
DGENRE=Folk
TTITLE0=Birds
TTITLE1=Kiss You Again
TTITLE2=Beautiful Excuse
TTITLE3=Sometimes
TTITLE4=I Just Want Some Love
TTITLE5=Deep Blue Sea
TTITLE6=But You
TTITLE7=If You Wanna Be Mine
TTITLE8=Tomorrow
TTITLE9=Roundabout
TTITLE10=Pink High Heels
TTITLE11=When I'm In Your Room
TTITLE12=I Just Want Some Love (French Version)
TTITLE13=Beautiful Excuse (French Version)
EXTD=YEAR: 2004
EXTT0=
EXTT1=
EXTT2=
EXTT3=
EXTT4=
EXTT5=
EXTT6=
EXTT7=
EXTT8=
EXTT9=
EXTT10=
EXTT11=
EXTT12=
EXTT13=
PLAYORDER=
